<?xml version="1.0" standalone="no"?>
<!DOCTYPE svg PUBLIC "-//W3C//DTD SVG 20010904//EN"
 "http://www.w3.org/TR/2001/REC-SVG-20010904/DTD/svg10.dtd">
<svg version="1.0" xmlns="http://www.w3.org/2000/svg"
 width="1000.000000pt" height="1000.000000pt" viewBox="0 0 1000.000000 1000.000000"
 preserveAspectRatio="xMidYMid meet">

<g transform="translate(0.000000,1000.000000) scale(0.100000,-0.100000)"
fill="#000000" stroke="none">
<path d="M0 5000 l0 -5000 5000 0 5000 0 0 5000 0 5000 -5000 0 -5000 0 0
-5000z m2053 4159 c244 -38 442 -208 517 -444 29 -92 32 -260 5 -350 -22 -76
-68 -166 -112 -225 -59 -78 -170 -163 -260 -199 l-33 -13 0 -640 0 -639 361
-447 c198 -246 419 -521 492 -611 73 -90 184 -228 247 -306 63 -78 241 -298
394 -489 154 -191 287 -351 297 -357 10 -5 29 -33 43 -61 l25 -53 5 -1025 c3
-564 9 -1292 12 -1617 l6 -593 -26 -54 c-17 -35 -41 -63 -68 -82 -37 -26 -50
-29 -118 -29 -68 0 -81 3 -118 29 -27 18 -51 47 -66 80 l-25 51 -6 1255 c-4
690 -8 1300 -10 1355 -2 55 -4 191 -4 302 l-1 202 -128 158 c-70 87 -220 273
-333 413 -113 140 -265 329 -339 420 -73 91 -333 414 -579 718 -245 304 -454
570 -463 590 -16 34 -18 96 -18 732 l0 695 -69 34 c-332 162 -456 574 -270
893 94 160 272 281 453 308 77 11 110 11 189 -1z m5380 -1240 c244 -38 442
-208 517 -444 29 -92 32 -260 5 -350 -22 -76 -68 -166 -112 -225 -59 -77 -170
-163 -259 -199 l-32 -12 -6 -152 c-3 -84 -9 -462 -12 -842 -3 -379 -9 -818
-13 -975 l-6 -285 -30 -52 c-17 -30 -199 -230 -430 -475 -428 -453 -536 -566
-657 -693 l-78 -81 -2 -1070 -3 -1069 -28 -47 c-90 -154 -318 -129 -375 41 -9
25 -12 333 -12 1150 0 1069 1 1118 19 1156 16 35 157 189 534 585 128 134 354
374 609 645 l37 40 5 130 c3 72 8 402 11 735 3 333 8 751 11 930 l6 325 -70
34 c-332 160 -457 573 -271 893 94 160 272 281 453 308 77 11 110 11 189 -1z
m-2340 -1850 c244 -38 442 -208 517 -444 29 -92 32 -260 5 -350 -22 -76 -68
-166 -112 -225 -60 -78 -170 -163 -261 -199 l-33 -14 1 -1898 c1 -1866 1
-1898 -18 -1936 -42 -80 -107 -117 -198 -111 -79 5 -137 42 -170 108 l-22 45
-6 1205 c-3 663 -6 1516 -6 1895 l0 690 -69 34 c-332 162 -456 574 -270 893
94 160 272 281 453 308 77 11 110 11 189 -1z"/>
<path d="M1875 8731 c-177 -81 -177 -321 0 -402 174 -80 366 112 286 286 -37
80 -118 135 -201 135 -25 0 -63 -9 -85 -19z"/>
<path d="M7255 7491 c-80 -37 -135 -118 -135 -201 0 -115 103 -219 217 -220
156 -1 268 166 204 305 -37 80 -118 135 -201 135 -25 0 -63 -9 -85 -19z"/>
<path d="M4915 5641 c-80 -37 -135 -118 -135 -201 0 -115 103 -219 217 -220
156 -1 268 166 204 305 -37 80 -118 135 -201 135 -25 0 -63 -9 -85 -19z"/>
</g>
</svg>
